<svg width="335" height="350" viewBox="0 0 335 350" fill="none" xmlns="http://www.w3.org/2000/svg">
<mask id="mask0_1267_2041" style="mask-type:alpha" maskUnits="userSpaceOnUse" x="0" y="0" width="335" height="350">
<rect width="335" height="350" fill="#FAFBFF"/>
</mask>
<g mask="url(#mask0_1267_2041)">
<path d="M473.134 175.494L245.106 280.762L245.039 280.793L245.019 280.864L176.499 522.49L71.2313 294.462L71.2004 294.395L71.1297 294.375L-170.497 225.855L57.5317 120.587L57.5985 120.556L57.6185 120.486L126.139 -121.141L231.407 106.888L231.437 106.954L231.508 106.974L473.134 175.494Z" fill="#FAFBFF" stroke="#3858E4" stroke-width="0.319743"/>
<path d="M463.72 132.541L252.71 262.689L252.647 262.728L252.636 262.801L214.081 507.703L83.9327 296.693L83.8941 296.631L83.8215 296.619L-161.081 258.065L49.9287 127.917L49.9913 127.878L50.0027 127.805L88.5573 -117.097L218.706 93.9126L218.744 93.9751L218.817 93.9866L463.72 132.541Z" fill="#FAFBFF" stroke="#3858E4" stroke-width="0.319743"/>
<path d="M449.673 90.5016L258.814 243.613L258.757 243.659L258.754 243.732L250.749 488.285L97.6374 297.426L97.5914 297.369L97.5179 297.367L-147.035 289.361L43.8239 136.25L43.8812 136.204L43.8836 136.13L51.8891 -108.423L205 82.4363L205.046 82.4937L205.12 82.4961L449.673 90.5016Z" fill="#FAFBFF" stroke="#3858E4" stroke-width="0.319743"/>
<path d="M431.088 50.2709L263.203 223.8L263.152 223.853L263.159 223.926L285.608 464.329L112.079 296.444L112.026 296.393L111.953 296.4L-128.45 318.848L39.4345 145.32L39.4856 145.267L39.4788 145.194L17.0301 -95.2094L190.559 72.6754L190.612 72.7265L190.685 72.7197L431.088 50.2709Z" fill="#FAFBFF" stroke="#3858E4" stroke-width="0.319743"/>
<path d="M408.268 12.6981L265.73 203.561L265.686 203.62L265.702 203.692L317.809 436.137L126.946 293.599L126.887 293.555L126.815 293.571L-105.63 345.678L36.9081 154.815L36.9521 154.756L36.936 154.684L-15.1709 -77.7609L175.692 64.7771L175.751 64.8211L175.823 64.805L408.268 12.6981Z" fill="#FAFBFF" stroke="#3858E4" stroke-width="0.319743"/>
<path d="M381.707 -21.4649L266.325 183.234L266.288 183.298L266.314 183.368L346.6 404.205L141.901 288.822L141.837 288.786L141.768 288.811L-79.0696 369.097L36.3134 164.398L36.3495 164.334L36.3244 164.265L-43.9622 -56.5722L160.737 58.8107L160.801 58.8468L160.87 58.8217L381.707 -21.4649Z" fill="#FAFBFF" stroke="#3858E4" stroke-width="0.319743"/>
<path d="M352.063 -51.6053L264.999 163.162L264.972 163.23L265.005 163.296L371.369 369.189L156.602 282.125L156.533 282.097L156.468 282.131L-49.4248 388.495L37.6389 173.727L37.6665 173.659L37.6328 173.594L-68.7309 -32.2993L146.037 54.7645L146.105 54.7921L146.17 54.7584L352.063 -51.6053Z" fill="#FAFBFF" stroke="#3858E4" stroke-width="0.319743"/>
<path d="M320.109 -77.2836L261.844 143.672L261.826 143.743L261.867 143.804L391.676 331.863L170.72 273.598L170.649 273.58L170.588 273.621L-17.4706 403.43L40.7936 182.474L40.8124 182.403L40.7706 182.342L-89.0376 -5.71664L131.918 52.5476L131.989 52.5664L132.05 52.5246L320.109 -77.2836Z" fill="#FAFBFF" stroke="#3858E4" stroke-width="0.319743"/>
<path d="M286.689 -98.2516L257.021 125.06L257.012 125.133L257.061 125.188L407.272 293.071L183.96 263.404L183.887 263.394L183.833 263.443L15.9492 413.654L45.6167 190.343L45.6264 190.27L45.5773 190.215L-104.634 22.3315L118.678 51.999L118.751 52.0087L118.805 51.9597L286.689 -98.2516Z" fill="#FAFBFF" stroke="#3858E4" stroke-width="0.319743"/>
<path d="M252.666 -114.458L250.749 107.572L250.749 107.646L250.804 107.694L418.107 253.677L196.076 251.76L196.003 251.76L195.954 251.815L49.9715 419.117L51.8884 197.087L51.889 197.014L51.8336 196.965L-115.469 50.9821L106.562 52.8991L106.635 52.8997L106.683 52.8443L252.666 -114.458Z" fill="#FAFBFF" stroke="#3858E4" stroke-width="0.319743"/>
<path d="M218.875 -126.04L243.291 91.3968L243.3 91.4699L243.36 91.5112L424.317 214.514L206.88 238.93L206.807 238.938L206.766 238.999L83.7631 419.956L59.3467 202.519L59.3385 202.446L59.2777 202.405L-121.679 79.4021L95.7579 54.9856L95.8309 54.9774L95.8722 54.9166L218.875 -126.04Z" fill="#FAFBFF" stroke="#3858E4" stroke-width="0.319743"/>
<path d="M186.075 -133.301L234.934 76.6574L234.951 76.7289L235.016 76.7629L426.206 176.342L216.248 225.201L216.176 225.218L216.142 225.283L116.563 416.474L67.7038 206.515L67.6872 206.444L67.622 206.41L-123.568 106.83L86.3901 57.971L86.4617 57.9544L86.4957 57.8892L186.075 -133.301Z" fill="#FAFBFF" stroke="#3858E4" stroke-width="0.319743"/>
<path d="M154.923 -136.681L225.974 63.4121L225.999 63.4814L226.068 63.5078L424.214 139.819L224.121 210.87L224.052 210.895L224.026 210.963L147.715 409.11L76.6636 209.017L76.639 208.948L76.5704 208.921L-121.577 132.61L78.5166 61.5592L78.5858 61.5346L78.6123 61.466L154.923 -136.681Z" fill="#FAFBFF" stroke="#3858E4" stroke-width="0.319743"/>
<path d="M125.948 -136.72L216.701 51.6581L216.733 51.7243L216.804 51.7432L418.881 105.472L230.504 196.225L230.438 196.257L230.419 196.328L176.69 398.405L85.9371 210.028L85.9052 209.962L85.8342 209.943L-116.244 156.214L72.1341 65.4612L72.2003 65.4292L72.2192 65.3582L125.948 -136.72Z" fill="#FAFBFF" stroke="#3858E4" stroke-width="0.319743"/>
<path d="M99.5414 -134.019L207.382 41.338L207.42 41.4006L207.493 41.4121L410.81 73.6937L235.452 181.534L235.39 181.573L235.378 181.645L203.097 384.962L95.2561 209.605L95.2176 209.542L95.145 209.53L-108.172 177.249L67.1857 69.4084L67.2483 69.3699L67.2598 69.2973L99.5414 -134.019Z" fill="#FAFBFF" stroke="#3858E4" stroke-width="0.319743"/>
<path d="M75.9568 -129.208L198.256 32.3506L198.3 32.4092L198.374 32.4137L400.627 44.7374L239.068 167.036L239.009 167.081L239.005 167.154L226.681 369.407L104.382 207.849L104.338 207.79L104.265 207.786L-97.9888 195.462L63.57 73.1629L63.6286 73.1185L63.6331 73.0451L75.9568 -129.208Z" fill="#FAFBFF" stroke="#3858E4" stroke-width="0.319743"/>
<path d="M55.319 -122.906L189.524 24.5621L189.573 24.6165L189.646 24.6143L388.953 18.728L241.485 152.933L241.43 152.982L241.433 153.055L247.319 352.362L113.114 204.894L113.065 204.839L112.991 204.842L-86.3152 210.728L61.1531 76.5233L61.2074 76.4738L61.2053 76.4003L55.319 -122.906Z" fill="#FAFBFF" stroke="#3858E4" stroke-width="0.319743"/>
<path d="M37.6401 -115.699L181.347 17.8174L181.401 17.8674L181.474 17.8591L376.374 -4.32253L242.858 139.384L242.808 139.438L242.816 139.511L264.998 334.411L121.291 200.895L121.237 200.845L121.164 200.853L-73.736 223.035L59.78 79.3284L59.8301 79.2746L59.8218 79.2015L37.6401 -115.699Z" fill="#FAFBFF" stroke="#3858E4" stroke-width="0.319743"/>
<path d="M22.8388 -108.116L173.847 11.9511L173.904 11.9969L173.976 11.983L363.419 -24.4955L243.352 126.512L243.307 126.57L243.321 126.642L279.799 316.085L128.791 196.018L128.734 195.972L128.662 195.986L-60.7816 232.465L59.2855 81.457L59.3312 81.3994L59.3173 81.3273L22.8388 -108.116Z" fill="#FAFBFF" stroke="#3858E4" stroke-width="0.319743"/>
<path d="M10.7629 -100.619L167.106 6.7975L167.167 6.83912L167.238 6.82023L350.551 -41.9433L243.134 114.4L243.093 114.461L243.112 114.532L291.875 297.845L135.532 190.428L135.471 190.387L135.4 190.405L-47.9132 239.169L59.5037 82.8255L59.5453 82.7649L59.5265 82.6939L10.7629 -100.619Z" fill="#FAFBFF" stroke="#3858E4" stroke-width="0.319743"/>
<path d="M1.21084 -93.594L161.176 2.19813L161.239 2.23589L161.308 2.2126L338.154 -56.867L242.362 103.098L242.324 103.161L242.348 103.231L301.427 280.076L141.462 184.284L141.399 184.246L141.33 184.27L-35.5162 243.349L60.2759 83.3846L60.3137 83.3215L60.2904 83.2518L1.21084 -93.594Z" fill="#FAFBFF" stroke="#3858E4" stroke-width="0.319743"/>
<path d="M-6.047 -87.3465L156.075 -1.99202L156.14 -1.95778L156.208 -1.98486L326.535 -69.4964L241.18 92.6256L241.146 92.6907L241.173 92.759L308.685 263.086L146.563 177.731L146.498 177.697L146.429 177.724L-23.8971 245.235L61.4574 83.1134L61.4916 83.0484L61.4645 82.98L-6.047 -87.3465Z" fill="#FAFBFF" stroke="#3858E4" stroke-width="0.319743"/>
<path d="M-11.2512 -82.1079L151.802 -5.9005L151.869 -5.86937L151.936 -5.89966L315.925 -80.0723L239.717 82.981L239.686 83.0476L239.716 83.1146L313.889 247.104L150.836 170.896L150.769 170.865L150.702 170.895L-13.2868 245.068L62.9206 82.0146L62.9517 81.948L62.9215 81.8811L-11.2512 -82.1079Z" fill="#FAFBFF" stroke="#3858E4" stroke-width="0.319743"/>
<path d="M-14.639 -78.0383L148.336 -9.63449L148.404 -9.60605L148.469 -9.63898L306.483 -88.8319L238.08 74.1431L238.051 74.2109L238.084 74.2766L317.277 232.291L154.302 163.887L154.234 163.858L154.169 163.891L-3.84545 243.084L64.5583 80.1092L64.5868 80.0414L64.5539 79.9757L-14.639 -78.0383Z" fill="#FAFBFF" stroke="#3858E4" stroke-width="0.319743"/>
<path d="M-16.4335 -75.2344L145.642 -13.2805L145.711 -13.2543L145.776 -13.2893L298.308 -95.998L236.354 66.0777L236.328 66.1464L236.363 66.211L319.071 218.743L156.996 156.789L156.927 156.763L156.862 156.798L4.33011 239.507L66.284 77.4311L66.3102 77.3625L66.2752 77.2979L-16.4335 -75.2344Z" fill="#FAFBFF" stroke="#3858E4" stroke-width="0.319743"/>
<path d="M-16.8358 -73.7373L143.678 -16.9039L143.747 -16.8794L143.811 -16.916L291.439 -101.772L234.606 58.7416L234.581 58.8109L234.618 58.8746L319.474 206.503L158.96 149.67L158.891 149.645L158.827 149.682L11.1989 234.538L68.0322 74.024L68.0568 73.9547L68.0201 73.891L-16.8358 -73.7373Z" fill="#FAFBFF" stroke="#3858E4" stroke-width="0.319743"/>
<path d="M-16.0221 -73.541L142.393 -20.5508L142.463 -20.5275L142.526 -20.5652L285.871 -106.33L232.881 52.0854L232.858 52.1551L232.895 52.2182L318.66 195.563L160.245 142.573L160.175 142.55L160.112 142.587L16.7669 228.352L69.7571 69.9368L69.7804 69.8671L69.7426 69.804L-16.0221 -73.541Z" fill="#FAFBFF" stroke="#3858E4" stroke-width="0.319743"/>
<path d="M-14.1416 -74.6L141.736 -24.249L141.806 -24.2264L141.869 -24.2648L281.558 -109.821L231.207 46.0566L231.185 46.1265L231.223 46.1892L316.78 185.879L160.902 135.528L160.832 135.505L160.769 135.544L21.0795 221.1L71.4305 65.2223L71.4531 65.1524L71.4147 65.0897L-14.1416 -74.6Z" fill="#FAFBFF" stroke="#3858E4" stroke-width="0.319743"/>
<path d="M-11.3179 -76.8367L141.652 -28.011L141.722 -27.9887L141.785 -28.0273L278.423 -112.369L229.598 40.6008L229.575 40.6708L229.614 40.7334L313.956 177.372L160.986 128.547L160.916 128.524L160.853 128.563L24.2144 212.905L73.0401 59.9347L73.0625 59.8647L73.0239 59.8022L-11.3179 -76.8367Z" fill="#FAFBFF" stroke="#3858E4" stroke-width="0.319743"/>
<path d="M-7.65133 -80.148L142.086 -31.8362L142.156 -31.8136L142.218 -31.852L276.363 -114.074L228.051 35.6629L228.029 35.7329L228.067 35.7956L310.289 169.94L160.552 121.628L160.482 121.606L160.419 121.644L26.2749 203.866L74.5867 54.1292L74.6093 54.0592L74.5709 53.9965L-7.65133 -80.148Z" fill="#FAFBFF" stroke="#3858E4" stroke-width="0.319743"/>
<path d="M-3.22384 -84.4108L142.982 -35.7131L143.052 -35.6899L143.115 -35.7277L275.254 -115.018L226.557 31.1879L226.533 31.2576L226.571 31.3207L305.862 163.46L159.656 114.762L159.586 114.739L159.523 114.777L27.3838 194.067L76.0814 47.861L76.1046 47.7913L76.0668 47.7283L-3.22384 -84.4108Z" fill="#FAFBFF" stroke="#3858E4" stroke-width="0.319743"/>
<path d="M1.89711 -89.4876L144.286 -39.6232L144.356 -39.5989L144.419 -39.6357L274.959 -115.269L225.095 27.12L225.071 27.1893L225.107 27.253L300.741 157.793L158.352 107.929L158.282 107.904L158.219 107.941L27.6787 183.575L77.5431 41.1855L77.5674 41.1161L77.5306 41.0525L1.89711 -89.4876Z" fill="#FAFBFF" stroke="#3858E4" stroke-width="0.319743"/>
<path d="M7.65317 -95.231L145.942 -43.542L146.011 -43.5163L146.075 -43.5518L275.331 -114.885L223.642 23.4039L223.616 23.4727L223.652 23.5371L294.985 152.793L156.696 101.104L156.627 101.078L156.563 101.114L27.3069 172.447L78.9959 34.1582L79.0216 34.0893L78.9861 34.025L7.65317 -95.231Z" fill="#FAFBFF" stroke="#3858E4" stroke-width="0.319743"/>
<path d="M13.9909 -101.488L147.893 -47.4428L147.962 -47.4153L148.027 -47.4491L276.216 -113.919L222.171 19.9838L222.144 20.0519L222.178 20.1172L288.647 148.307L154.745 94.2616L154.676 94.2341L154.611 94.2679L26.4217 160.737L80.4668 26.835L80.4943 26.7668L80.4605 26.7016L13.9909 -101.488Z" fill="#FAFBFF" stroke="#3858E4" stroke-width="0.319743"/>
<path d="M20.8561 -108.104L150.085 -51.2985L150.152 -51.269L150.218 -51.3008L277.461 -112.425L220.655 16.8034L220.626 16.8707L220.657 16.937L281.782 144.18L152.553 87.374L152.486 87.3444L152.42 87.3762L25.1768 148.501L81.9827 19.272L82.0123 19.2047L81.9805 19.1384L20.8561 -108.104Z" fill="#FAFBFF" stroke="#3858E4" stroke-width="0.319743"/>
<path d="M28.1912 -114.929L152.459 -55.0839L152.526 -55.052L152.593 -55.0815L278.914 -110.462L219.069 13.8066L219.037 13.8728L219.067 13.9401L274.447 140.262L150.179 80.416L150.112 80.3841L150.045 80.4137L23.7235 135.794L83.569 11.5256L83.6009 11.4594L83.5714 11.3921L28.1912 -114.929Z" fill="#FAFBFF" stroke="#3858E4" stroke-width="0.319743"/>
<path d="M35.9322 -121.819L154.961 -58.7772L155.026 -58.7428L155.095 -58.7697L280.432 -108.092L217.39 10.9366L217.356 11.0016L217.383 11.07L266.706 136.407L147.677 73.3658L147.612 73.3314L147.543 73.3583L22.2061 122.681L85.2475 3.652L85.2819 3.58704L85.2549 3.51863L35.9322 -121.819Z" fill="#FAFBFF" stroke="#3858E4" stroke-width="0.319743"/>
<path d="M44.0067 -128.638L157.535 -62.3617L157.598 -62.3246L157.668 -62.3487L281.88 -105.39L215.603 8.13828L215.566 8.20177L215.59 8.27123L258.631 132.483L145.103 66.207L145.04 66.1699L144.97 66.194L20.7585 109.235L87.0347 -4.29302L87.0718 -4.3565L87.0477 -4.42596L44.0067 -128.638Z" fill="#FAFBFF" stroke="#3858E4" stroke-width="0.319743"/>
<path d="M52.3335 -135.268L160.125 -65.8269L160.187 -65.7871L160.257 -65.8081L283.138 -102.434L213.697 5.35715L213.657 5.41894L213.678 5.48939L250.304 128.37L142.513 58.9289L142.451 58.889L142.381 58.91L19.5002 95.5364L88.941 -12.2552L88.9809 -12.317L88.9598 -12.3875L52.3335 -135.268Z" fill="#FAFBFF" stroke="#3858E4" stroke-width="0.319743"/>
<path d="M60.8234 -141.605L162.681 -69.1691L162.741 -69.1265L162.812 -69.1442L284.103 -99.3161L211.667 2.54135L211.625 2.60125L211.642 2.67259L241.814 123.964L139.957 51.5278L139.897 51.4852L139.826 51.503L18.5344 81.6748L90.9704 -20.1826L91.013 -20.2425L90.9953 -20.3139L60.8234 -141.605Z" fill="#FAFBFF" stroke="#3858E4" stroke-width="0.319743"/>
<path d="M69.3804 -147.566L165.153 -72.3917L165.211 -72.3464L165.283 -72.3607L284.693 -96.131L209.518 -0.357968L209.473 -0.300143L209.487 -0.228048L233.258 119.182L137.485 44.0069L137.427 43.9615L137.355 43.9759L17.9449 67.7462L93.1196 -28.0268L93.165 -28.0847L93.1507 -28.1568L69.3804 -147.566Z" fill="#FAFBFF" stroke="#3858E4" stroke-width="0.319743"/>
<path d="M77.9036 -153.088L167.498 -75.5047L167.554 -75.4566L167.626 -75.4674L284.843 -92.9794L207.26 -3.38479L207.211 -3.32922L207.222 -3.25651L224.734 113.96L135.14 36.3765L135.084 36.3284L135.011 36.3393L17.7946 53.8513L95.3783 -35.7434L95.4264 -35.7989L95.4156 -35.8717L77.9036 -153.088Z" fill="#FAFBFF" stroke="#3858E4" stroke-width="0.319743"/>
<path d="M86.291 -158.129L169.677 -78.5242L169.73 -78.4734L169.803 -78.4808L284.512 -89.9637L204.907 -6.57811L204.857 -6.52494L204.864 -6.45179L216.347 108.257L132.961 28.6527L132.908 28.602L132.835 28.6093L18.1258 40.0923L97.7305 -43.2934L97.7813 -43.3465L97.7739 -43.4197L86.291 -158.129Z" fill="#FAFBFF" stroke="#3858E4" stroke-width="0.319743"/>
<path d="M94.4419 -162.667L171.655 -81.4718L171.706 -81.4185L171.78 -81.4223L283.679 -87.1844L202.483 -9.9708L202.43 -9.92014L202.434 -9.84673L208.196 102.053L130.982 20.8571L130.932 20.8038L130.858 20.8076L18.959 26.5697L100.154 -50.6439L100.208 -50.6946L100.204 -50.768L94.4419 -162.667Z" fill="#FAFBFF" stroke="#3858E4" stroke-width="0.319743"/>
<path d="M102.261 -166.702L173.409 -84.373L173.457 -84.3174L173.53 -84.3177L282.342 -84.7373L200.013 -13.5891L199.957 -13.5411L199.958 -13.4676L200.377 95.3442L129.229 13.0149L129.181 12.9593L129.107 12.9596L20.2957 13.3792L102.625 -57.769L102.681 -57.817L102.68 -57.8906L102.261 -166.702Z" fill="#FAFBFF" stroke="#3858E4" stroke-width="0.319743"/>
<path d="M109.66 -170.25L174.917 -87.2558L174.963 -87.198L175.036 -87.1949L280.518 -82.7099L197.524 -17.4523L197.466 -17.4069L197.463 -17.3334L192.978 88.1487L127.721 5.15442L127.675 5.09663L127.602 5.09351L22.1195 0.608454L105.114 -64.6491L105.172 -64.6945L105.175 -64.768L109.66 -170.25Z" fill="#FAFBFF" stroke="#3858E4" stroke-width="0.319743"/>
<path d="M116.562 -173.342L176.168 -90.1497L176.211 -90.0899L176.285 -90.0835L278.239 -81.1795L195.046 -21.5729L194.986 -21.5301L194.98 -21.4568L186.076 80.4976L126.469 -2.69521L126.427 -2.75497L126.353 -2.76137L24.3989 -11.6654L107.592 -71.272L107.651 -71.3148L107.658 -71.388L116.562 -173.342Z" fill="#FAFBFF" stroke="#3858E4" stroke-width="0.319743"/>
<path d="M122.903 -176.022L177.157 -93.0833L177.197 -93.0218L177.27 -93.0123L275.547 -80.2103L192.608 -25.9565L192.547 -25.9162L192.537 -25.8434L179.735 72.4337L125.481 -10.5048L125.441 -10.5663L125.368 -10.5758L27.0911 -23.3778L110.03 -77.6316L110.091 -77.6719L110.101 -77.7448L122.903 -176.022Z" fill="#FAFBFF" stroke="#3858E4" stroke-width="0.319743"/>
<path d="M128.632 -178.34L177.882 -96.0845L177.919 -96.0214L177.992 -96.0091L272.493 -79.853L190.238 -30.6031L190.175 -30.5654L190.162 -30.4929L174.006 64.0084L124.756 -18.2471L124.719 -18.3102L124.646 -18.3226L30.1447 -34.4786L112.4 -83.7285L112.463 -83.7662L112.476 -83.8387L128.632 -178.34Z" fill="#FAFBFF" stroke="#3858E4" stroke-width="0.319743"/>
<path d="M133.714 -180.352L178.349 -99.1777L178.385 -99.1133L178.457 -99.0982L269.134 -80.1429L187.959 -35.5072L187.895 -35.4718L187.88 -35.3998L168.924 55.2775L124.289 -25.8973L124.253 -25.9617L124.181 -25.9767L33.504 -44.9321L114.679 -89.5677L114.743 -89.6031L114.758 -89.6751L133.714 -180.352Z" fill="#FAFBFF" stroke="#3858E4" stroke-width="0.319743"/>
<path d="M138.128 -182.116L178.569 -102.384L178.602 -102.318L178.674 -102.301L265.526 -81.1006L185.794 -40.659L185.728 -40.6257L185.711 -40.5543L164.511 46.298L124.069 -33.4344L124.036 -33.4999L123.964 -33.5173L37.1119 -54.7176L116.844 -95.1592L116.91 -95.1925L116.927 -95.2639L138.128 -182.116Z" fill="#FAFBFF" stroke="#3858E4" stroke-width="0.319743"/>
<path d="M141.867 -183.687L178.554 -105.72L178.586 -105.653L178.657 -105.634L261.725 -82.7327L183.758 -46.0454L183.691 -46.0141L183.672 -45.9432L160.771 37.1251L124.084 -40.8419L124.052 -40.9084L123.981 -40.928L40.9131 -63.8291L118.88 -100.516L118.947 -100.548L118.966 -100.619L141.867 -183.687Z" fill="#FAFBFF" stroke="#3858E4" stroke-width="0.319743"/>
<path d="M144.94 -185.115L178.321 -109.197L178.35 -109.13L178.421 -109.109L257.781 -85.0316L181.864 -51.6506L181.796 -51.621L181.775 -51.5507L157.698 27.8096L124.317 -48.1079L124.287 -48.1752L124.217 -48.1965L44.8567 -72.2735L120.774 -105.654L120.842 -105.684L120.863 -105.754L144.94 -185.115Z" fill="#FAFBFF" stroke="#3858E4" stroke-width="0.319743"/>
<path d="M147.365 -186.444L177.886 -112.823L177.914 -112.755L177.984 -112.732L253.739 -87.9781L180.118 -57.4575L180.05 -57.4293L180.027 -57.3595L155.273 18.3961L124.752 -55.2255L124.724 -55.2934L124.654 -55.3163L48.8988 -80.0701L122.52 -110.591L122.588 -110.619L122.611 -110.689L147.365 -186.444Z" fill="#FAFBFF" stroke="#3858E4" stroke-width="0.319743"/>
<path d="M149.172 -187.712L177.266 -116.598L177.293 -116.53L177.363 -116.506L249.635 -91.5424L178.521 -63.4483L178.453 -63.4213L178.429 -63.3518L153.465 8.92053L125.371 -62.1934L125.344 -62.2617L125.275 -62.2857L53.0024 -87.2493L124.116 -115.343L124.185 -115.37L124.209 -115.44L149.172 -187.712Z" fill="#FAFBFF" stroke="#3858E4" stroke-width="0.319743"/>
<path d="M150.401 -188.946L176.482 -120.521L176.508 -120.452L176.577 -120.427L245.498 -95.685L177.072 -69.6047L177.004 -69.5785L176.979 -69.5093L152.236 -0.588766L126.156 -69.0142L126.13 -69.0829L126.061 -69.1077L57.1402 -93.85L125.566 -119.93L125.634 -119.956L125.659 -120.026L150.401 -188.946Z" fill="#FAFBFF" stroke="#3858E4" stroke-width="0.319743"/>
</g>
</svg>
